<svg id="svg" version="1.1" xmlns="http://www.w3.org/2000/svg" xmlns:xlink="http://www.w3.org/1999/xlink" width="400" height="400" viewBox="0, 0, 400,400"><g id="svgg"><path id="path0" d="M0.000 200.000 L 0.000 400.000 200.000 400.000 L 400.000 400.000 400.000 200.000 L 400.000 0.000 200.000 0.000 L 0.000 0.000 0.000 200.000 M359.984 2.768 C 360.966 3.029,361.965 3.405,362.205 3.604 C 362.474 3.828,363.074 3.743,363.767 3.383 C 364.956 2.766,366.874 2.607,367.352 3.085 C 368.044 3.777,371.561 4.799,373.251 4.800 C 374.408 4.800,375.289 5.025,375.600 5.400 C 375.874 5.730,376.403 6.000,376.777 6.000 C 377.150 6.000,378.036 6.518,378.745 7.151 C 379.629 7.940,380.649 8.383,381.993 8.561 C 384.245 8.860,384.452 9.199,384.315 12.347 C 384.205 14.883,384.557 15.185,387.632 15.194 C 390.122 15.201,390.671 15.733,390.888 18.356 C 390.977 19.438,391.278 19.859,392.380 20.448 C 394.276 21.461,394.563 22.129,394.024 24.271 C 393.494 26.376,393.736 27.462,394.810 27.803 C 396.250 28.260,397.200 29.966,397.200 32.092 C 397.200 33.484,397.458 34.439,398.064 35.289 C 399.273 36.987,399.486 39.881,398.545 41.844 C 397.866 43.262,397.733 44.424,397.612 50.000 C 397.591 50.945,397.279 51.660,396.649 52.200 C 395.145 53.489,394.685 56.159,395.676 57.839 C 397.211 60.440,396.038 61.752,390.677 63.433 C 388.552 64.099,388.374 64.242,388.594 65.119 C 388.919 66.414,388.170 67.200,386.611 67.200 C 383.457 67.200,381.490 68.548,381.870 70.448 C 382.222 72.211,381.392 72.938,379.419 72.594 C 378.529 72.439,376.976 72.339,375.970 72.373 C 374.963 72.406,373.648 72.246,373.047 72.018 C 372.221 71.704,371.681 71.744,370.830 72.185 C 369.803 72.715,369.467 72.681,367.013 71.790 C 364.049 70.715,363.717 70.778,361.825 72.766 C 360.518 74.139,358.469 74.447,357.600 73.400 C 357.326 73.070,356.584 72.800,355.951 72.800 C 355.318 72.800,354.800 72.725,354.800 72.633 C 354.800 72.541,354.691 72.181,354.557 71.833 C 354.253 71.040,355.110 70.998,355.969 71.763 C 356.827 72.528,361.145 72.072,361.721 71.156 C 362.042 70.645,361.778 70.197,360.443 68.991 C 357.538 66.367,358.277 65.129,362.741 65.144 C 364.472 65.150,364.524 65.229,363.772 66.735 C 363.105 68.072,362.470 68.310,361.680 67.520 C 361.307 67.147,361.200 67.236,361.200 67.920 C 361.200 68.524,361.443 68.800,361.976 68.800 C 362.403 68.800,362.862 68.976,362.995 69.192 C 363.396 69.840,364.858 68.694,364.653 67.892 C 364.529 67.411,364.845 66.990,365.635 66.582 L 366.800 65.979 366.800 61.239 C 366.800 57.513,366.928 56.391,367.400 56.000 C 367.730 55.726,368.000 55.164,368.000 54.751 C 368.000 54.338,368.180 54.000,368.400 54.000 C 370.111 54.000,368.220 49.298,364.761 44.951 C 362.350 41.922,362.183 41.900,358.572 44.147 C 357.029 45.108,355.376 46.017,354.900 46.168 C 352.818 46.829,351.878 48.740,352.135 51.791 C 352.356 54.413,353.094 57.227,353.726 57.859 C 354.118 58.251,354.066 60.000,353.662 60.000 C 352.881 60.000,352.115 58.630,350.365 54.100 C 349.882 52.850,349.200 52.974,349.200 54.311 C 349.200 54.922,348.917 55.826,348.571 56.320 C 348.089 57.008,347.972 58.013,348.071 60.610 C 348.186 63.623,348.122 64.002,347.500 64.001 C 347.115 64.000,346.800 63.820,346.800 63.600 C 346.800 61.976,343.902 64.608,340.055 69.727 C 338.510 71.782,336.985 73.681,336.665 73.946 C 335.818 74.649,336.302 75.877,337.535 76.152 C 338.799 76.435,340.249 77.484,339.883 77.850 C 339.741 77.993,338.764 77.740,337.712 77.289 C 334.758 76.022,333.045 75.819,331.561 76.560 C 330.855 76.912,329.941 77.200,329.531 77.200 C 328.520 77.200,325.621 79.070,325.318 79.917 C 324.794 81.380,321.454 84.122,321.162 83.328 C 320.981 82.835,321.194 82.341,321.819 81.800 C 322.327 81.360,322.801 80.659,322.872 80.243 C 322.942 79.826,323.350 79.286,323.779 79.043 C 324.207 78.799,325.015 78.195,325.575 77.700 C 326.134 77.205,326.774 76.800,326.996 76.800 C 327.218 76.799,327.923 76.349,328.562 75.800 C 329.444 75.041,330.176 74.800,331.600 74.800 C 333.334 74.800,333.649 74.632,335.771 72.576 C 338.432 69.999,338.424 69.362,335.723 68.994 C 333.503 68.691,330.800 67.564,330.009 66.610 C 329.308 65.766,326.489 64.400,325.446 64.400 C 325.005 64.400,324.003 63.991,323.222 63.490 C 322.440 62.990,321.450 62.391,321.023 62.161 C 320.219 61.727,318.871 56.801,318.823 54.124 C 318.810 53.422,318.644 52.751,318.453 52.632 C 318.261 52.514,317.993 51.717,317.856 50.861 C 317.560 49.006,317.100 48.565,315.068 48.185 C 313.070 47.812,312.457 46.624,313.361 44.875 C 314.072 43.501,314.221 40.584,313.600 40.200 C 313.101 39.891,313.071 36.296,313.563 35.780 C 314.308 35.000,314.689 29.020,314.193 25.872 C 313.907 24.056,313.964 23.869,315.161 22.672 C 319.154 18.676,319.727 17.731,319.470 15.562 C 319.093 12.379,322.047 9.951,325.248 10.813 C 326.653 11.191,326.943 11.132,328.143 10.217 C 328.876 9.658,329.881 9.200,330.377 9.200 C 331.384 9.200,333.600 7.060,333.600 6.089 C 333.600 4.852,334.852 4.000,336.667 4.000 C 337.626 4.000,338.761 3.781,339.189 3.514 C 339.800 3.132,340.257 3.132,341.312 3.514 C 343.745 4.393,347.082 4.152,347.807 3.045 C 348.521 1.955,356.260 1.779,359.984 2.768 M364.134 48.500 C 365.007 49.416,366.000 51.164,366.000 51.786 C 366.000 52.658,364.509 52.552,364.024 51.646 C 363.421 50.517,360.935 49.200,359.410 49.200 C 357.760 49.200,356.730 48.836,357.026 48.358 C 357.374 47.794,363.579 47.918,364.134 48.500 M363.132 51.011 C 363.205 51.077,363.295 51.995,363.332 53.050 L 363.400 54.970 361.822 55.234 C 358.173 55.847,352.260 51.774,355.700 51.017 C 358.015 50.508,362.576 50.504,363.132 51.011 M368.275 56.658 C 367.883 57.051,367.934 59.512,368.340 59.763 C 368.809 60.053,369.710 58.267,369.539 57.386 C 369.388 56.605,368.715 56.218,368.275 56.658 M363.483 61.826 C 363.927 62.270,363.984 62.576,363.681 62.879 C 363.058 63.502,362.000 62.957,362.000 62.013 C 362.000 61.042,362.621 60.964,363.483 61.826 M156.726 75.649 C 157.235 75.842,158.135 76.003,158.726 76.006 C 159.724 76.011,162.331 76.756,164.200 77.570 C 164.640 77.762,165.675 78.215,166.500 78.578 L 168.000 79.238 168.000 83.019 C 168.000 85.098,167.913 86.800,167.808 86.800 C 167.702 86.800,166.660 86.189,165.492 85.442 C 162.701 83.656,159.239 82.000,158.299 82.000 C 157.886 82.000,157.190 81.809,156.754 81.575 C 155.520 80.915,148.050 81.016,145.976 81.721 C 143.401 82.596,142.000 83.281,142.000 83.664 C 142.000 83.849,141.822 84.000,141.605 84.000 C 140.963 84.000,139.638 85.273,138.273 87.200 C 136.025 90.373,135.304 92.359,134.719 96.995 C 134.238 100.797,134.704 107.087,135.586 108.722 C 135.788 109.095,136.268 110.165,136.653 111.100 C 137.039 112.035,137.499 112.800,137.677 112.800 C 137.855 112.800,138.000 113.056,138.000 113.368 C 138.000 114.463,142.451 117.949,145.180 118.992 C 151.233 121.306,160.713 119.588,166.346 115.156 C 167.875 113.954,168.000 114.183,168.000 118.200 C 168.000 121.070,167.872 122.000,167.475 122.000 C 167.186 122.000,166.061 122.417,164.975 122.926 C 153.059 128.510,140.073 126.464,132.900 117.872 C 132.405 117.279,132.000 116.702,132.000 116.589 C 132.000 116.476,131.586 115.713,131.081 114.892 C 130.219 113.493,129.414 111.210,128.423 107.354 C 127.421 103.452,128.089 93.316,129.580 89.800 C 129.767 89.360,130.152 88.370,130.437 87.600 C 132.383 82.342,139.393 76.810,145.400 75.793 C 146.280 75.644,147.720 75.375,148.600 75.196 C 150.381 74.833,155.294 75.107,156.726 75.649 M206.306 75.640 C 206.827 75.838,207.623 76.000,208.077 76.000 C 211.728 76.000,218.531 81.532,220.866 86.400 C 228.508 102.332,221.812 122.091,207.701 125.249 C 202.802 126.346,194.248 125.834,192.620 124.347 C 192.411 124.156,191.997 124.000,191.701 124.000 C 191.096 124.000,187.436 121.711,186.189 120.553 C 183.119 117.703,181.310 114.306,179.612 108.200 C 178.888 105.595,178.645 98.100,179.198 95.400 C 179.468 94.080,179.772 92.460,179.872 91.800 C 180.071 90.489,180.153 90.277,182.011 86.261 C 183.349 83.368,186.799 79.503,189.012 78.417 C 189.665 78.097,190.470 77.634,190.800 77.388 C 191.565 76.820,195.854 75.624,199.200 75.046 C 200.553 74.813,205.137 75.196,206.306 75.640 M261.600 75.647 C 264.539 76.121,266.421 76.584,269.600 77.614 L 271.800 78.328 271.914 82.164 C 272.039 86.327,272.026 86.355,270.462 85.250 C 269.188 84.351,266.364 83.067,264.300 82.449 C 263.475 82.202,262.173 81.810,261.407 81.577 C 256.346 80.039,248.039 81.467,245.191 84.366 C 242.255 87.353,243.688 94.800,247.198 94.800 C 247.551 94.800,248.047 95.007,248.300 95.260 C 248.741 95.701,250.021 96.004,254.720 96.785 C 267.015 98.825,271.905 101.595,273.409 107.369 C 276.929 120.884,261.957 129.491,243.600 124.505 C 236.617 122.608,236.400 122.416,236.400 118.138 C 236.400 114.172,236.359 114.190,240.466 116.327 C 242.080 117.167,244.210 118.088,245.200 118.374 C 246.190 118.660,247.797 119.143,248.771 119.447 C 255.282 121.480,264.894 118.948,266.570 114.758 C 268.897 108.943,265.449 105.076,256.800 103.800 C 249.335 102.699,247.431 102.220,243.600 100.480 C 241.841 99.681,238.000 95.840,238.000 94.880 C 238.000 94.484,237.775 93.935,237.500 93.660 C 237.167 93.327,237.000 91.835,237.000 89.200 C 237.000 86.565,237.167 85.073,237.500 84.740 C 237.775 84.465,238.000 83.998,238.000 83.703 C 238.000 82.453,241.863 78.734,244.400 77.542 C 247.229 76.213,248.952 75.723,253.200 75.042 C 254.478 74.837,258.268 75.110,261.600 75.647 M362.859 75.767 C 365.159 76.728,366.822 79.381,366.767 82.000 L 366.746 83.000 366.319 82.000 C 364.256 77.173,364.380 77.258,359.185 77.115 C 355.857 77.024,355.000 76.882,355.000 76.422 C 355.000 75.975,355.508 75.868,357.260 75.950 C 358.545 76.009,359.633 75.870,359.783 75.627 C 360.145 75.042,361.243 75.092,362.859 75.767 M199.000 81.221 C 188.070 82.733,182.347 95.722,186.673 109.200 C 191.225 123.385,212.772 123.531,216.164 109.400 C 217.293 104.696,217.387 95.690,216.341 92.426 C 215.717 90.477,214.664 88.228,214.300 88.067 C 214.135 87.993,214.000 87.715,214.000 87.448 C 214.000 86.894,211.605 84.539,209.760 83.278 C 207.191 81.523,202.836 80.690,199.000 81.221 M278.000 135.000 L 278.000 136.800 201.000 136.800 L 124.000 136.800 124.000 135.000 L 124.000 133.200 201.000 133.200 L 278.000 133.200 278.000 135.000 M398.794 238.500 C 398.790 239.384,398.677 239.626,398.443 239.256 C 398.128 238.759,398.283 237.200,398.647 237.200 C 398.731 237.200,398.797 237.785,398.794 238.500 " stroke="none" fill="#fbfbfb" fill-rule="evenodd"></path><path id="path1" d="M347.807 3.045 C 347.082 4.152,343.745 4.393,341.312 3.514 C 340.257 3.132,339.800 3.132,339.189 3.514 C 338.761 3.781,337.626 4.000,336.667 4.000 C 334.852 4.000,333.600 4.852,333.600 6.089 C 333.600 7.060,331.384 9.200,330.377 9.200 C 329.881 9.200,328.876 9.658,328.143 10.217 C 326.943 11.132,326.653 11.191,325.248 10.813 C 322.047 9.951,319.093 12.379,319.470 15.562 C 319.727 17.731,319.154 18.676,315.161 22.672 C 313.964 23.869,313.907 24.056,314.193 25.872 C 314.689 29.020,314.308 35.000,313.563 35.780 C 313.071 36.296,313.101 39.891,313.600 40.200 C 314.221 40.584,314.072 43.501,313.361 44.875 C 312.457 46.624,313.070 47.812,315.068 48.185 C 317.100 48.565,317.560 49.006,317.856 50.861 C 317.993 51.717,318.261 52.514,318.453 52.632 C 318.644 52.751,318.810 53.422,318.823 54.124 C 318.871 56.801,320.219 61.727,321.023 62.161 C 321.450 62.391,322.440 62.990,323.222 63.490 C 324.003 63.991,325.005 64.400,325.446 64.400 C 326.489 64.400,329.308 65.766,330.009 66.610 C 330.800 67.564,333.503 68.691,335.723 68.994 C 338.424 69.362,338.432 69.999,335.771 72.576 C 333.649 74.632,333.334 74.800,331.600 74.800 C 330.176 74.800,329.444 75.041,328.562 75.800 C 327.923 76.349,327.218 76.799,326.996 76.800 C 326.774 76.800,326.134 77.205,325.575 77.700 C 325.015 78.195,324.207 78.799,323.779 79.043 C 323.350 79.286,322.942 79.826,322.872 80.243 C 322.801 80.659,322.327 81.360,321.819 81.800 C 321.194 82.341,320.981 82.835,321.162 83.328 C 321.454 84.122,324.794 81.380,325.318 79.917 C 325.621 79.070,328.520 77.200,329.531 77.200 C 329.941 77.200,330.855 76.912,331.561 76.560 C 333.045 75.819,334.758 76.022,337.712 77.289 C 338.764 77.740,339.741 77.993,339.883 77.850 C 340.249 77.484,338.799 76.435,337.535 76.152 C 336.302 75.877,335.818 74.649,336.665 73.946 C 336.985 73.681,338.510 71.782,340.055 69.727 C 343.902 64.608,346.800 61.976,346.800 63.600 C 346.800 63.820,347.115 64.000,347.500 64.001 C 348.122 64.002,348.186 63.623,348.071 60.610 C 347.972 58.013,348.089 57.008,348.571 56.320 C 348.917 55.826,349.200 54.922,349.200 54.311 C 349.200 52.974,349.882 52.850,350.365 54.100 C 352.115 58.630,352.881 60.000,353.662 60.000 C 354.066 60.000,354.118 58.251,353.726 57.859 C 353.094 57.227,352.356 54.413,352.135 51.791 C 351.878 48.740,352.818 46.829,354.900 46.168 C 355.376 46.017,357.029 45.108,358.572 44.147 C 362.183 41.900,362.350 41.922,364.761 44.951 C 368.220 49.298,370.111 54.000,368.400 54.000 C 368.180 54.000,368.000 54.338,368.000 54.751 C 368.000 55.164,367.730 55.726,367.400 56.000 C 366.928 56.391,366.800 57.513,366.800 61.239 L 366.800 65.979 365.635 66.582 C 364.845 66.990,364.529 67.411,364.653 67.892 C 364.858 68.694,363.396 69.840,362.995 69.192 C 362.862 68.976,362.403 68.800,361.976 68.800 C 361.443 68.800,361.200 68.524,361.200 67.920 C 361.200 67.236,361.307 67.147,361.680 67.520 C 362.470 68.310,363.105 68.072,363.772 66.735 C 364.524 65.229,364.472 65.150,362.741 65.144 C 358.277 65.129,357.538 66.367,360.443 68.991 C 361.778 70.197,362.042 70.645,361.721 71.156 C 361.145 72.072,356.827 72.528,355.969 71.763 C 355.110 70.998,354.253 71.040,354.557 71.833 C 354.691 72.181,354.800 72.541,354.800 72.633 C 354.800 72.725,355.318 72.800,355.951 72.800 C 356.584 72.800,357.326 73.070,357.600 73.400 C 358.469 74.447,360.518 74.139,361.825 72.766 C 363.717 70.778,364.049 70.715,367.013 71.790 C 369.467 72.681,369.803 72.715,370.830 72.185 C 371.681 71.744,372.221 71.704,373.047 72.018 C 373.648 72.246,374.963 72.406,375.970 72.373 C 376.976 72.339,378.529 72.439,379.419 72.594 C 381.392 72.938,382.222 72.211,381.870 70.448 C 381.490 68.548,383.457 67.200,386.611 67.200 C 388.170 67.200,388.919 66.414,388.594 65.119 C 388.374 64.242,388.552 64.099,390.677 63.433 C 396.038 61.752,397.211 60.440,395.676 57.839 C 394.685 56.159,395.145 53.489,396.649 52.200 C 397.279 51.660,397.591 50.945,397.612 50.000 C 397.733 44.424,397.866 43.262,398.545 41.844 C 399.486 39.881,399.273 36.987,398.064 35.289 C 397.458 34.439,397.200 33.484,397.200 32.092 C 397.200 29.966,396.250 28.260,394.810 27.803 C 393.736 27.462,393.494 26.376,394.024 24.271 C 394.563 22.129,394.276 21.461,392.380 20.448 C 391.278 19.859,390.977 19.438,390.888 18.356 C 390.671 15.733,390.122 15.201,387.632 15.194 C 384.557 15.185,384.205 14.883,384.315 12.347 C 384.452 9.199,384.245 8.860,381.993 8.561 C 380.649 8.383,379.629 7.940,378.745 7.151 C 378.036 6.518,377.150 6.000,376.777 6.000 C 376.403 6.000,375.874 5.730,375.600 5.400 C 375.289 5.025,374.408 4.800,373.251 4.800 C 371.561 4.799,368.044 3.777,367.352 3.085 C 366.874 2.607,364.956 2.766,363.767 3.383 C 363.074 3.743,362.474 3.828,362.205 3.604 C 360.255 1.985,348.793 1.540,347.807 3.045 M357.026 48.358 C 356.730 48.836,357.760 49.200,359.410 49.200 C 360.935 49.200,363.421 50.517,364.024 51.646 C 364.509 52.552,366.000 52.658,366.000 51.786 C 366.000 51.164,365.007 49.416,364.134 48.500 C 363.579 47.918,357.374 47.794,357.026 48.358 M357.800 50.658 C 354.255 51.134,353.835 52.022,356.335 53.755 C 358.339 55.144,359.883 55.560,361.822 55.234 L 363.400 54.970 363.332 53.050 C 363.295 51.995,363.205 51.077,363.132 51.011 C 362.859 50.762,358.953 50.504,357.800 50.658 M369.539 57.386 C 369.710 58.267,368.809 60.053,368.340 59.763 C 367.934 59.512,367.883 57.051,368.275 56.658 C 368.715 56.218,369.388 56.605,369.539 57.386 M362.000 62.013 C 362.000 62.957,363.058 63.502,363.681 62.879 C 363.984 62.576,363.927 62.270,363.483 61.826 C 362.621 60.964,362.000 61.042,362.000 62.013 M148.600 75.196 C 147.720 75.375,146.280 75.644,145.400 75.793 C 139.393 76.810,132.383 82.342,130.437 87.600 C 130.152 88.370,129.767 89.360,129.580 89.800 C 128.089 93.316,127.421 103.452,128.423 107.354 C 129.414 111.210,130.219 113.493,131.081 114.892 C 131.586 115.713,132.000 116.476,132.000 116.589 C 132.000 116.857,133.500 118.648,134.955 120.115 C 141.411 126.629,154.466 127.851,164.975 122.926 C 166.061 122.417,167.186 122.000,167.475 122.000 C 167.872 122.000,168.000 121.070,168.000 118.200 C 168.000 114.183,167.875 113.954,166.346 115.156 C 160.713 119.588,151.233 121.306,145.180 118.992 C 142.451 117.949,138.000 114.463,138.000 113.368 C 138.000 113.056,137.855 112.800,137.677 112.800 C 137.499 112.800,137.039 112.035,136.653 111.100 C 136.268 110.165,135.788 109.095,135.586 108.722 C 134.704 107.087,134.238 100.797,134.719 96.995 C 135.304 92.359,136.025 90.373,138.273 87.200 C 139.638 85.273,140.963 84.000,141.605 84.000 C 141.822 84.000,142.000 83.849,142.000 83.664 C 142.000 83.281,143.401 82.596,145.976 81.721 C 148.050 81.016,155.520 80.915,156.754 81.575 C 157.190 81.809,157.886 82.000,158.299 82.000 C 159.239 82.000,162.701 83.656,165.492 85.442 C 166.660 86.189,167.702 86.800,167.808 86.800 C 167.913 86.800,168.000 85.098,168.000 83.019 L 168.000 79.238 166.500 78.578 C 165.675 78.215,164.640 77.762,164.200 77.570 C 162.331 76.756,159.724 76.011,158.726 76.006 C 158.135 76.003,157.235 75.842,156.726 75.649 C 155.294 75.107,150.381 74.833,148.600 75.196 M199.200 75.046 C 195.854 75.624,191.565 76.820,190.800 77.388 C 190.470 77.634,189.665 78.097,189.012 78.417 C 186.799 79.503,183.349 83.368,182.011 86.261 C 180.153 90.277,180.071 90.489,179.872 91.800 C 179.772 92.460,179.468 94.080,179.198 95.400 C 178.645 98.100,178.888 105.595,179.612 108.200 C 181.310 114.306,183.119 117.703,186.189 120.553 C 187.436 121.711,191.096 124.000,191.701 124.000 C 191.997 124.000,192.411 124.156,192.620 124.347 C 194.248 125.834,202.802 126.346,207.701 125.249 C 227.212 120.882,230.184 86.375,211.819 77.422 C 210.215 76.640,208.531 76.000,208.077 76.000 C 207.623 76.000,206.827 75.838,206.306 75.640 C 205.137 75.196,200.553 74.813,199.200 75.046 M253.200 75.042 C 246.452 76.124,243.604 77.339,240.471 80.471 C 238.446 82.496,238.000 83.080,238.000 83.703 C 238.000 83.998,237.775 84.465,237.500 84.740 C 237.167 85.073,237.000 86.565,237.000 89.200 C 237.000 91.835,237.167 93.327,237.500 93.660 C 237.775 93.935,238.000 94.484,238.000 94.880 C 238.000 97.920,245.438 102.058,253.000 103.226 C 254.100 103.395,255.810 103.654,256.800 103.800 C 265.449 105.076,268.897 108.943,266.570 114.758 C 264.894 118.948,255.282 121.480,248.771 119.447 C 247.797 119.143,246.190 118.660,245.200 118.374 C 244.210 118.088,242.080 117.167,240.466 116.327 C 236.359 114.190,236.400 114.172,236.400 118.138 C 236.400 122.416,236.617 122.608,243.600 124.505 C 261.957 129.491,276.929 120.884,273.409 107.369 C 271.905 101.595,267.015 98.825,254.720 96.785 C 250.021 96.004,248.741 95.701,248.300 95.260 C 248.047 95.007,247.551 94.800,247.198 94.800 C 246.210 94.800,244.197 92.392,243.604 90.500 C 242.466 86.865,244.742 83.522,249.600 81.698 C 251.308 81.057,259.422 80.973,261.407 81.577 C 262.173 81.810,263.475 82.202,264.300 82.449 C 266.364 83.067,269.188 84.351,270.462 85.250 C 272.026 86.355,272.039 86.327,271.914 82.164 L 271.800 78.328 269.600 77.614 C 263.935 75.778,256.190 74.563,253.200 75.042 M359.783 75.627 C 359.633 75.870,358.545 76.009,357.260 75.950 C 355.508 75.868,355.000 75.975,355.000 76.422 C 355.000 76.882,355.857 77.024,359.185 77.115 C 363.756 77.240,364.386 77.512,365.364 79.779 C 365.654 80.451,366.084 81.450,366.319 82.000 L 366.746 83.000 366.767 82.000 C 366.849 78.123,361.345 73.100,359.783 75.627 M206.760 81.860 C 209.441 82.730,214.000 86.249,214.000 87.448 C 214.000 87.715,214.135 87.993,214.300 88.067 C 214.664 88.228,215.717 90.477,216.341 92.426 C 217.387 95.690,217.293 104.696,216.164 109.400 C 212.772 123.531,191.225 123.385,186.673 109.200 C 181.154 92.005,192.106 77.100,206.760 81.860 M124.000 135.000 L 124.000 136.800 201.000 136.800 L 278.000 136.800 278.000 135.000 L 278.000 133.200 201.000 133.200 L 124.000 133.200 124.000 135.000 M398.296 237.956 C 398.187 238.371,398.253 238.956,398.443 239.256 C 398.677 239.626,398.790 239.384,398.794 238.500 C 398.801 237.045,398.593 236.818,398.296 237.956 " stroke="none" fill="#2691ed" fill-rule="evenodd"></path></g></svg>