<svg id="svg" version="1.1" xmlns="http://www.w3.org/2000/svg" xmlns:xlink="http://www.w3.org/1999/xlink" width="400" height="400" viewBox="0, 0, 400,400"><g id="svgg"><path id="path0" d="M1.200 101.600 L 1.200 200.000 174.500 200.090 C 269.815 200.139,348.861 200.130,350.158 200.069 C 353.271 199.923,354.048 200.211,352.833 201.062 C 352.113 201.566,351.727 201.604,350.945 201.248 C 349.181 200.444,347.730 200.694,346.830 201.957 C 345.929 203.223,342.068 203.537,340.168 202.499 C 339.524 202.147,339.084 202.175,338.222 202.622 C 337.610 202.940,336.355 203.200,335.434 203.200 C 333.705 203.200,332.800 203.730,332.800 204.742 C 332.800 205.900,330.860 207.900,329.487 208.157 C 328.748 208.296,327.551 208.846,326.829 209.379 C 325.779 210.153,325.318 210.273,324.532 209.974 C 323.095 209.428,321.741 209.516,321.057 210.200 C 320.727 210.530,320.292 210.800,320.091 210.800 C 318.974 210.800,318.298 212.407,318.566 214.425 C 318.859 216.640,318.654 216.982,314.203 221.682 C 312.614 223.360,312.564 223.667,313.408 226.567 C 313.951 228.436,313.951 228.838,313.408 230.379 C 313.073 231.326,312.800 232.697,312.800 233.427 C 312.800 234.156,312.620 234.864,312.400 235.000 C 311.879 235.322,311.879 238.678,312.400 239.000 C 312.620 239.136,312.800 240.216,312.800 241.400 C 312.800 242.584,312.620 243.664,312.400 243.800 C 310.896 244.730,312.459 247.200,314.551 247.200 C 315.672 247.200,316.800 248.510,316.800 249.813 C 316.800 250.272,317.064 250.996,317.387 251.424 C 317.710 251.851,317.980 252.872,317.987 253.694 C 317.994 254.516,318.177 255.956,318.394 256.894 C 318.610 257.832,318.885 259.101,319.005 259.714 C 319.144 260.425,319.615 260.997,320.311 261.298 C 320.910 261.556,321.829 262.090,322.354 262.484 C 322.879 262.878,323.696 263.200,324.169 263.200 C 325.250 263.200,327.817 264.492,329.171 265.717 C 330.602 267.013,332.260 267.702,334.596 267.970 C 337.364 268.289,337.366 269.039,334.607 271.776 C 332.436 273.929,332.295 274.000,330.182 274.000 C 328.982 274.000,328.000 274.142,328.000 274.316 C 328.000 274.490,327.100 275.158,326.000 275.800 C 324.900 276.442,324.000 277.115,324.000 277.294 C 324.000 277.473,323.550 277.791,323.000 278.000 C 322.393 278.231,322.000 278.695,322.000 279.181 C 322.000 279.621,321.550 280.276,321.000 280.637 C 320.067 281.248,319.589 282.800,320.333 282.800 C 320.847 282.800,323.833 279.887,324.116 279.111 C 324.443 278.212,327.950 276.017,329.076 276.008 C 329.558 276.003,330.064 275.820,330.200 275.600 C 330.850 274.548,335.113 275.313,338.500 277.090 C 338.665 277.176,338.800 277.009,338.800 276.718 C 338.800 276.427,338.073 275.874,337.185 275.489 C 335.065 274.571,334.871 273.892,336.258 272.249 C 336.886 271.505,338.390 269.592,339.600 267.997 C 343.225 263.222,345.401 261.508,346.200 262.800 C 346.812 263.790,347.042 262.929,347.133 259.300 C 347.187 257.155,347.404 255.340,347.615 255.267 C 347.827 255.193,348.000 254.548,348.000 253.833 C 348.000 251.433,349.365 251.739,349.835 254.245 C 349.976 254.995,350.250 255.707,350.445 255.828 C 350.640 255.949,350.800 256.365,350.800 256.754 C 350.800 257.684,352.622 259.412,352.984 258.826 C 353.131 258.588,352.790 257.238,352.226 255.828 C 350.318 251.059,351.191 245.200,353.809 245.200 C 354.061 245.200,355.750 244.300,357.561 243.200 C 361.635 240.725,361.084 240.639,363.949 244.201 C 367.065 248.074,369.114 252.800,367.677 252.800 C 366.717 252.800,366.000 256.019,366.000 260.324 L 366.000 264.779 364.800 265.400 C 363.979 265.824,363.600 266.320,363.600 266.967 C 363.600 268.299,360.915 268.757,360.170 267.552 C 359.797 266.948,360.417 266.316,360.949 266.758 C 361.518 267.230,362.017 266.926,362.714 265.684 C 363.481 264.314,362.973 263.955,360.467 264.096 C 357.471 264.265,357.062 265.748,359.403 267.951 C 361.472 269.897,361.158 270.527,357.912 270.945 C 355.662 271.234,355.128 271.185,354.584 270.641 C 353.799 269.856,352.944 270.209,353.630 271.036 C 353.887 271.346,354.453 271.600,354.886 271.600 C 355.319 271.600,356.131 271.960,356.691 272.400 C 358.204 273.590,359.253 273.390,361.019 271.572 C 362.778 269.761,363.299 269.713,366.951 271.027 C 368.540 271.598,369.049 271.637,369.691 271.236 C 370.222 270.904,371.022 270.845,372.140 271.054 C 373.053 271.225,374.487 271.311,375.328 271.245 C 376.168 271.180,377.366 271.338,377.991 271.596 C 379.808 272.349,380.800 271.586,380.800 269.435 C 380.800 267.147,382.488 266.071,385.632 266.353 C 386.924 266.469,387.764 265.507,387.452 264.266 C 387.185 263.200,387.522 262.984,391.275 261.815 C 394.986 260.659,396.083 258.919,394.563 256.599 C 393.665 255.229,394.136 252.474,395.456 251.365 C 396.226 250.718,396.492 250.042,396.638 248.365 C 396.946 244.800,396.946 244.640,396.645 243.583 C 396.417 242.784,396.624 242.228,397.613 240.984 C 399.130 239.075,399.030 237.165,397.282 234.634 C 396.455 233.438,396.193 232.567,396.169 230.942 C 396.135 228.645,395.394 227.412,393.649 226.745 C 392.741 226.397,392.710 226.262,392.951 223.691 C 393.234 220.680,393.120 220.378,391.355 219.474 C 390.347 218.958,390.068 218.523,389.889 217.187 C 389.562 214.746,388.638 213.928,386.346 214.050 C 383.717 214.189,383.047 213.549,383.329 211.166 C 383.627 208.653,382.889 207.600,380.832 207.600 C 379.762 207.600,379.025 207.317,378.355 206.648 C 376.981 205.277,373.691 203.838,371.814 203.787 C 370.228 203.744,368.604 203.254,366.171 202.085 C 365.064 201.553,364.795 201.565,363.451 202.202 C 362.250 202.772,361.766 202.822,360.961 202.455 C 360.412 202.205,359.549 202.000,359.043 202.000 C 358.071 202.000,356.612 200.721,357.066 200.268 C 357.213 200.120,366.933 200.000,378.667 200.000 L 400.000 200.000 400.000 101.600 L 400.000 3.200 200.600 3.200 L 1.200 3.200 1.200 101.600 M354.963 9.256 C 355.724 9.603,356.250 9.593,357.161 9.216 C 358.159 8.803,358.570 8.826,359.640 9.360 C 360.398 9.738,361.929 10.000,363.381 10.000 C 364.734 10.000,366.023 10.183,366.246 10.406 C 366.470 10.630,367.361 10.888,368.226 10.980 C 369.092 11.072,370.928 11.699,372.306 12.373 C 373.685 13.048,374.945 13.603,375.106 13.607 C 375.268 13.611,376.192 14.151,377.160 14.807 C 378.128 15.463,379.234 16.000,379.617 16.000 C 380.000 16.000,381.218 16.900,382.324 18.000 C 383.429 19.100,384.640 20.000,385.014 20.000 C 387.303 20.000,389.599 29.765,387.600 31.000 C 387.380 31.136,387.199 31.732,387.198 32.324 C 387.196 32.916,386.925 33.917,386.596 34.549 C 384.037 39.455,384.123 39.277,381.635 44.876 C 381.177 45.907,380.622 46.863,380.401 46.999 C 380.180 47.136,380.000 47.612,380.000 48.057 C 380.000 50.134,378.990 48.338,378.881 46.065 C 378.762 43.603,378.758 43.595,377.681 43.852 C 376.123 44.224,376.000 44.340,376.000 45.431 C 376.000 46.518,374.672 46.477,373.011 45.340 C 372.577 45.043,371.806 44.800,371.297 44.800 C 370.507 44.800,370.432 44.687,370.786 44.027 C 371.124 43.395,371.048 43.206,370.370 42.990 C 368.731 42.470,370.156 42.197,375.529 42.000 L 380.992 41.800 381.539 40.656 C 381.994 39.705,382.003 38.740,381.594 34.944 C 381.023 29.644,381.098 29.730,376.687 29.232 C 375.020 29.043,373.161 28.545,372.288 28.053 C 371.456 27.584,370.533 27.200,370.237 27.200 C 369.940 27.200,369.474 26.930,369.200 26.600 C 368.926 26.270,368.094 26.000,367.351 26.000 C 366.608 26.000,366.000 25.820,366.000 25.600 C 366.000 25.380,365.184 25.200,364.187 25.200 C 362.945 25.200,362.302 25.011,362.145 24.600 C 361.878 23.905,357.200 23.716,357.200 24.400 C 357.200 24.620,357.898 24.800,358.751 24.800 C 359.642 24.800,360.514 25.055,360.800 25.400 C 361.102 25.764,361.978 26.000,363.025 26.000 C 363.975 26.000,364.864 26.180,365.000 26.400 C 365.136 26.620,365.782 26.800,366.436 26.800 C 367.124 26.800,367.722 27.053,367.855 27.400 C 367.982 27.730,368.516 28.000,369.043 28.000 C 370.508 28.000,370.195 28.832,368.029 30.697 C 366.340 32.152,365.993 32.706,365.606 34.573 C 365.165 36.694,363.941 38.800,363.149 38.800 C 362.240 38.800,359.191 40.469,358.814 41.174 C 358.589 41.594,358.128 42.215,357.789 42.554 C 356.737 43.606,356.553 47.943,357.488 49.686 C 359.150 52.788,364.255 57.694,366.200 58.058 C 366.650 58.143,367.054 58.584,367.123 59.066 C 367.284 60.194,369.173 60.726,369.828 59.829 C 370.081 59.483,370.552 59.200,370.874 59.200 C 371.197 59.200,371.893 58.740,372.421 58.177 C 372.991 57.571,373.671 57.230,374.091 57.340 C 374.580 57.467,374.800 57.297,374.800 56.790 C 374.800 56.333,374.460 56.007,373.900 55.928 C 372.869 55.781,372.519 52.427,373.500 52.100 C 373.838 51.987,374.000 52.400,374.000 53.377 C 374.000 54.532,374.191 54.893,374.961 55.185 C 375.490 55.386,376.022 55.712,376.144 55.909 C 376.420 56.356,378.800 56.038,378.800 55.555 C 378.800 55.360,379.149 55.200,379.576 55.200 C 380.545 55.200,380.634 55.040,380.974 52.700 C 381.202 51.127,381.142 50.800,380.625 50.800 C 380.267 50.800,380.000 50.458,380.000 50.000 C 380.000 48.722,380.707 49.072,381.415 50.700 C 381.774 51.525,382.246 52.534,382.464 52.942 C 382.763 53.504,382.671 53.893,382.085 54.542 C 381.037 55.703,380.793 56.934,381.291 58.557 C 381.789 60.178,381.419 62.000,380.592 62.000 C 380.267 62.000,380.000 61.820,380.000 61.600 C 380.000 61.023,378.108 61.107,377.724 61.700 C 377.546 61.975,377.392 64.720,377.383 67.800 C 377.366 73.449,377.031 76.821,376.363 78.069 C 376.163 78.442,376.000 79.176,376.000 79.699 C 376.000 81.600,373.943 82.945,371.523 82.628 C 363.557 81.584,363.172 81.491,361.400 80.181 C 360.740 79.693,359.570 78.983,358.800 78.602 C 357.089 77.757,354.800 75.639,354.800 74.902 C 354.800 74.605,353.568 73.134,352.061 71.634 C 348.866 68.451,348.315 66.413,349.401 61.800 C 349.712 60.480,350.317 57.870,350.745 56.000 C 351.174 54.130,351.811 51.556,352.162 50.280 C 353.868 44.078,350.732 38.478,345.900 39.096 C 344.186 39.315,343.859 40.000,345.469 40.000 C 346.528 40.000,348.000 40.984,348.000 41.692 C 348.000 41.895,347.145 42.008,346.100 41.943 L 344.200 41.826 343.974 43.506 C 343.850 44.429,343.625 45.308,343.474 45.459 C 342.988 45.945,343.183 42.016,343.685 41.213 C 344.284 40.254,343.800 39.678,342.881 40.256 C 342.313 40.613,342.166 41.577,341.994 46.042 C 341.709 53.450,340.000 56.684,340.000 49.816 C 340.000 48.066,339.817 47.146,339.400 46.800 C 339.066 46.523,338.800 45.651,338.800 44.831 C 338.800 44.022,338.592 43.152,338.337 42.897 C 337.988 42.548,337.987 42.297,338.333 41.880 C 338.586 41.576,338.689 41.222,338.562 41.095 C 338.434 40.968,338.171 40.264,337.977 39.532 C 337.784 38.799,337.262 36.850,336.819 35.200 C 335.940 31.927,335.802 29.684,336.360 27.738 C 336.591 26.933,336.575 26.335,336.314 26.074 C 336.039 25.799,336.245 25.225,336.954 24.296 C 337.529 23.542,338.000 22.562,338.000 22.119 C 338.000 18.940,344.032 11.562,347.441 10.571 C 348.651 10.219,350.127 9.678,350.720 9.368 C 352.030 8.685,353.618 8.643,354.963 9.256 M353.200 23.600 C 353.200 23.820,354.010 24.000,355.000 24.000 C 355.990 24.000,356.800 23.820,356.800 23.600 C 356.800 23.380,355.990 23.200,355.000 23.200 C 354.010 23.200,353.200 23.380,353.200 23.600 M347.582 43.500 C 347.499 44.919,346.492 47.617,346.266 47.027 C 345.650 45.423,345.961 43.200,346.800 43.200 C 347.240 43.200,347.592 43.335,347.582 43.500 M339.200 61.975 C 339.200 62.844,338.942 63.716,338.600 64.000 C 337.927 64.558,337.702 72.569,338.348 72.968 C 338.540 73.086,338.798 73.688,338.921 74.304 C 339.713 78.265,344.745 81.107,352.300 81.860 C 356.190 82.248,355.243 82.801,350.700 82.794 C 344.036 82.784,340.628 81.062,338.153 76.451 C 337.519 75.270,336.775 74.215,336.500 74.109 C 336.147 73.972,336.000 72.757,336.000 69.981 C 336.000 65.641,335.751 65.086,334.584 66.827 C 334.153 67.471,333.516 67.998,333.170 67.999 C 332.823 67.999,332.117 68.450,331.600 69.000 C 331.047 69.588,330.215 70.000,329.579 70.000 C 328.985 70.000,328.274 70.270,328.000 70.600 C 327.435 71.281,324.585 71.423,324.193 70.789 C 323.720 70.024,325.718 68.827,327.491 68.813 C 328.845 68.803,329.312 68.601,329.837 67.800 C 330.197 67.250,330.796 66.800,331.168 66.800 C 331.539 66.800,332.454 66.170,333.200 65.400 C 333.946 64.630,334.778 64.000,335.048 64.000 C 335.692 64.000,338.000 61.682,338.000 61.036 C 338.000 60.759,338.115 60.418,338.256 60.278 C 338.784 59.750,339.200 60.498,339.200 61.975 M131.795 62.392 C 131.928 62.607,131.830 63.170,131.577 63.643 C 131.324 64.116,130.949 65.514,130.743 66.751 C 130.005 71.188,129.725 72.624,129.294 74.200 C 128.867 75.760,128.240 78.879,127.826 81.500 C 127.568 83.131,127.877 83.125,130.503 81.445 C 137.933 76.692,147.029 76.899,150.559 81.903 C 152.779 85.050,152.969 89.463,151.183 96.400 C 150.552 98.851,150.235 100.217,149.001 105.800 C 148.417 108.440,147.683 111.410,147.368 112.400 C 147.053 113.390,146.797 114.518,146.798 114.906 C 146.807 117.945,145.588 119.189,142.600 119.189 C 139.716 119.189,139.096 118.857,139.341 117.444 C 139.916 114.116,140.274 112.528,140.548 112.084 C 140.713 111.817,141.025 110.653,141.242 109.499 C 141.829 106.364,142.240 104.422,142.788 102.200 C 143.059 101.100,143.426 99.570,143.603 98.800 C 143.780 98.030,144.235 96.093,144.613 94.495 C 147.161 83.730,139.752 80.842,127.800 87.942 C 126.402 88.773,125.288 90.898,124.748 93.767 C 124.021 97.628,123.724 99.007,123.231 100.800 C 122.959 101.790,122.589 103.230,122.409 104.000 C 122.229 104.770,121.861 106.300,121.592 107.400 C 120.689 111.089,120.352 112.592,120.159 113.800 C 119.443 118.283,118.704 119.202,115.824 119.195 C 112.768 119.186,111.886 118.859,112.183 117.845 C 112.536 116.643,113.597 112.124,114.025 110.000 C 114.225 109.010,114.672 107.030,115.020 105.600 C 115.367 104.170,115.802 102.280,115.986 101.400 C 116.170 100.520,116.623 98.540,116.993 97.000 C 117.363 95.460,117.807 93.480,117.980 92.600 C 118.153 91.720,118.517 90.100,118.788 89.000 C 119.059 87.900,119.425 86.370,119.600 85.600 C 119.775 84.830,120.141 83.300,120.412 82.200 C 120.683 81.100,121.061 79.435,121.253 78.500 C 121.948 75.099,122.334 73.346,122.991 70.600 C 123.360 69.060,123.813 66.990,123.997 66.000 C 124.732 62.042,124.778 62.000,128.366 62.000 C 130.119 62.000,131.662 62.176,131.795 62.392 M242.633 65.300 C 242.796 65.463,242.735 66.272,242.498 67.098 C 242.261 67.924,241.917 69.320,241.733 70.200 L 241.400 71.800 237.601 71.800 L 233.803 71.800 233.936 70.252 C 234.102 68.326,235.062 65.543,235.712 65.101 C 236.294 64.704,242.208 64.874,242.633 65.300 M387.000 73.600 C 387.136 73.820,387.689 74.000,388.229 74.000 C 388.769 74.000,389.523 74.169,389.905 74.375 C 390.287 74.581,391.410 75.133,392.400 75.601 C 394.746 76.710,395.815 77.518,395.438 77.895 C 395.271 78.062,394.904 77.884,394.623 77.499 C 394.342 77.115,393.737 76.800,393.280 76.800 C 392.822 76.800,392.336 76.620,392.200 76.400 C 392.064 76.180,391.558 75.994,391.076 75.987 C 390.594 75.980,389.851 75.710,389.424 75.387 C 388.996 75.064,388.242 74.800,387.747 74.800 C 387.252 74.800,386.736 74.620,386.600 74.400 C 386.464 74.180,385.868 73.997,385.276 73.994 C 384.684 73.991,383.930 73.813,383.600 73.600 C 383.165 73.319,383.517 73.211,384.876 73.206 C 385.908 73.203,386.864 73.380,387.000 73.600 M199.138 78.631 C 205.905 80.520,208.096 84.039,206.857 91.027 C 206.106 95.260,205.663 97.376,205.271 98.600 C 205.059 99.260,204.676 100.880,204.419 102.200 C 204.162 103.520,203.751 105.230,203.505 106.000 C 203.260 106.770,202.910 108.165,202.729 109.100 C 201.935 113.202,201.683 114.267,201.255 115.326 C 201.005 115.945,200.800 116.972,200.800 117.608 C 200.800 118.954,199.625 119.342,196.199 119.126 L 194.200 119.000 194.076 117.281 C 193.957 115.626,192.884 115.163,192.000 116.384 C 191.767 116.706,189.842 117.728,188.400 118.297 C 175.230 123.487,165.553 116.844,169.244 105.149 C 171.464 98.115,179.527 94.222,193.600 93.389 C 195.690 93.266,197.985 93.074,198.700 92.964 L 200.000 92.764 200.000 90.036 C 200.000 83.771,193.455 82.381,181.000 86.001 C 177.358 87.059,177.053 87.038,177.381 85.754 C 177.544 85.119,177.767 83.737,177.878 82.683 C 178.032 81.217,178.311 80.615,179.066 80.120 C 181.788 78.337,194.662 77.382,199.138 78.631 M238.662 79.222 C 238.943 79.503,238.963 80.207,238.722 81.322 C 238.523 82.245,238.199 83.855,238.004 84.899 C 237.808 85.943,237.537 86.979,237.400 87.200 C 237.263 87.421,236.975 88.547,236.758 89.701 C 236.308 92.104,235.901 93.918,234.987 97.600 C 234.631 99.030,234.186 101.010,233.998 102.000 C 233.809 102.990,233.482 104.340,233.271 105.000 C 233.059 105.660,232.673 107.280,232.412 108.600 C 232.151 109.920,231.682 111.876,231.369 112.946 C 231.056 114.016,230.800 115.209,230.800 115.597 C 230.800 118.057,229.686 119.200,227.295 119.195 C 223.794 119.186,223.076 118.901,223.386 117.644 C 223.527 117.070,223.795 115.880,223.982 115.000 C 224.168 114.120,224.623 112.140,224.993 110.600 C 225.363 109.060,225.823 107.080,226.016 106.200 C 226.209 105.320,226.658 103.430,227.013 102.000 C 227.369 100.570,227.815 98.545,228.005 97.501 C 228.196 96.457,228.463 95.421,228.600 95.200 C 228.737 94.979,229.025 93.853,229.242 92.699 C 229.741 90.033,230.181 88.064,231.007 84.800 C 231.369 83.370,231.762 81.601,231.880 80.870 C 232.176 79.034,237.243 77.803,238.662 79.222 M268.731 80.143 C 268.803 80.772,268.642 81.817,268.373 82.465 C 267.664 84.177,268.342 84.585,270.015 83.450 C 273.756 80.914,276.235 79.882,280.200 79.213 C 285.245 78.361,287.414 79.237,286.736 81.851 C 286.515 82.703,286.238 83.897,286.121 84.505 C 285.817 86.078,285.469 86.162,282.537 85.368 C 276.924 83.849,266.421 88.405,265.866 92.600 C 265.750 93.480,265.367 95.370,265.017 96.800 C 264.666 98.230,264.206 100.300,263.994 101.400 C 263.782 102.500,263.326 104.570,262.981 106.000 C 262.635 107.430,262.186 109.410,261.982 110.400 C 260.192 119.104,260.140 119.201,257.310 119.195 C 253.813 119.186,253.081 118.900,253.345 117.644 C 253.466 117.070,253.729 115.790,253.930 114.800 C 254.131 113.810,254.517 112.100,254.788 111.000 C 255.059 109.900,255.425 108.370,255.600 107.600 C 255.775 106.830,256.141 105.300,256.412 104.200 C 256.683 103.100,257.061 101.435,257.253 100.500 C 257.831 97.669,258.324 95.493,258.814 93.600 C 259.071 92.610,259.424 91.170,259.600 90.400 C 259.775 89.630,260.141 88.100,260.412 87.000 C 260.683 85.900,261.069 84.190,261.270 83.200 C 261.471 82.210,261.737 80.915,261.860 80.321 C 262.130 79.024,262.626 78.858,266.000 78.938 C 268.546 78.999,268.603 79.024,268.731 80.143 M194.755 98.178 C 194.637 98.296,192.753 98.566,190.570 98.778 C 180.539 99.749,175.985 102.737,176.013 108.331 C 176.044 114.562,182.508 115.860,191.635 111.467 C 195.320 109.694,195.674 109.300,196.557 106.000 C 196.939 104.570,197.408 102.860,197.600 102.200 C 198.534 98.977,198.345 98.211,196.585 98.081 C 195.698 98.016,194.874 98.059,194.755 98.178 M283.000 130.000 L 283.000 131.800 196.500 131.901 L 110.000 132.002 110.000 130.268 C 110.000 129.314,110.120 128.413,110.268 128.266 C 110.415 128.119,149.340 128.044,196.768 128.099 L 283.000 128.200 283.000 130.000 M356.267 247.067 C 355.666 247.667,356.079 248.000,357.422 248.000 C 359.173 248.000,362.237 249.348,362.776 250.355 C 363.249 251.239,364.691 251.710,364.928 251.058 C 365.143 250.466,364.026 248.420,363.000 247.525 C 362.190 246.818,356.877 246.457,356.267 247.067 M357.600 249.635 C 357.050 249.792,356.015 249.938,355.300 249.960 C 351.659 250.072,355.553 254.030,359.591 254.322 C 362.367 254.523,362.955 254.006,362.492 251.776 C 362.139 250.078,359.734 249.025,357.600 249.635 M368.553 256.098 C 368.845 256.560,368.804 257.044,368.414 257.774 C 367.601 259.293,367.200 259.027,367.200 256.967 C 367.200 255.088,367.710 254.761,368.553 256.098 M360.952 260.581 C 360.645 261.382,361.101 262.000,362.000 262.000 C 363.107 262.000,363.267 261.435,362.375 260.671 C 361.417 259.851,361.237 259.839,360.952 260.581 M144.821 274.640 C 136.954 276.410,130.617 282.043,128.443 289.200 C 126.826 294.522,126.342 300.699,127.221 304.800 C 127.433 305.790,127.709 307.230,127.835 308.000 C 128.085 309.528,128.204 309.850,129.839 313.400 C 130.448 314.720,131.257 316.108,131.639 316.484 C 132.020 316.860,132.573 317.495,132.866 317.895 C 137.534 324.256,150.095 326.770,160.200 323.365 C 166.983 321.080,167.185 320.899,167.194 317.133 C 167.203 313.015,167.158 312.985,163.998 315.029 C 162.492 316.003,161.081 316.800,160.862 316.800 C 160.644 316.800,159.955 317.052,159.332 317.360 C 151.138 321.412,138.993 317.919,135.828 310.600 C 132.502 302.909,132.531 295.512,135.915 288.445 C 140.607 278.649,154.786 277.032,165.451 285.076 L 166.702 286.020 166.945 285.110 C 167.079 284.609,167.192 282.899,167.195 281.308 L 167.200 278.416 164.617 277.208 C 163.196 276.544,161.702 276.000,161.297 276.000 C 160.892 276.000,160.368 275.808,160.133 275.573 C 158.942 274.382,148.732 273.761,144.821 274.640 M195.000 274.651 C 192.624 275.207,192.131 275.377,189.800 276.440 C 187.955 277.282,184.691 279.754,183.800 280.984 C 183.360 281.592,182.775 282.326,182.500 282.616 C 182.225 282.906,182.000 283.249,182.000 283.379 C 182.000 283.509,181.586 284.287,181.081 285.108 C 180.219 286.507,179.414 288.790,178.423 292.646 C 177.404 296.613,178.096 307.218,179.595 310.600 C 179.790 311.040,180.057 311.787,180.189 312.260 C 182.688 321.238,194.981 326.823,206.473 324.202 C 212.951 322.725,221.200 315.033,221.200 310.471 C 221.200 310.206,221.362 309.677,221.561 309.295 C 224.370 303.891,222.203 285.451,218.447 282.804 C 218.288 282.692,217.650 281.924,217.030 281.098 C 215.957 279.669,210.954 276.000,210.079 276.000 C 209.851 276.000,209.155 275.746,208.532 275.434 C 205.692 274.016,199.293 273.645,195.000 274.651 M250.200 274.400 C 249.760 274.589,248.928 274.756,248.351 274.772 C 242.147 274.938,236.000 281.656,236.000 288.271 C 236.000 295.499,240.273 299.927,248.800 301.536 C 264.752 304.546,266.000 305.195,266.000 310.474 C 266.000 315.691,263.218 318.041,256.200 318.754 C 249.826 319.401,243.951 318.062,238.309 314.677 C 235.835 313.193,235.600 313.426,235.600 317.362 C 235.600 320.808,236.136 322.000,237.686 322.000 C 238.028 322.000,238.824 322.269,239.454 322.598 C 240.084 322.926,240.994 323.196,241.476 323.198 C 241.958 323.199,242.450 323.357,242.568 323.548 C 242.686 323.740,243.642 323.999,244.692 324.123 C 245.741 324.248,247.950 324.559,249.600 324.815 C 253.473 325.415,259.658 324.790,262.095 323.553 C 262.477 323.359,262.980 323.200,263.214 323.200 C 263.891 323.200,267.935 320.494,269.216 319.183 C 274.391 313.890,273.928 304.320,268.313 300.487 C 264.819 298.101,261.672 297.097,254.400 296.045 C 243.494 294.469,238.806 288.486,244.335 283.202 C 247.956 279.741,260.373 278.767,263.780 281.676 C 263.989 281.854,264.457 282.000,264.820 282.000 C 265.468 282.000,268.930 283.692,269.882 284.473 C 270.823 285.244,271.200 284.325,271.194 281.276 C 271.187 277.782,271.024 277.372,269.492 276.987 C 268.887 276.836,268.294 276.551,268.173 276.356 C 268.052 276.160,267.583 276.000,267.130 276.000 C 266.678 276.000,265.473 275.741,264.454 275.424 C 260.412 274.167,252.127 273.572,250.200 274.400 M359.000 274.400 C 358.864 274.620,357.683 274.800,356.376 274.800 C 354.531 274.800,354.000 274.934,354.000 275.400 C 354.000 275.894,354.715 276.000,358.031 276.000 C 361.961 276.000,362.088 276.029,363.131 277.155 C 364.968 279.141,365.200 279.535,365.206 280.683 C 365.210 281.480,365.313 281.641,365.563 281.246 C 366.435 279.869,363.592 274.800,361.949 274.800 C 361.563 274.800,361.136 274.620,361.000 274.400 C 360.864 274.180,360.414 274.000,360.000 274.000 C 359.586 274.000,359.136 274.180,359.000 274.400 M205.429 280.662 C 208.614 281.732,210.553 283.254,213.614 287.083 C 213.826 287.349,214.000 287.814,214.000 288.116 C 214.000 288.419,214.119 288.786,214.265 288.932 C 216.121 290.787,216.903 303.287,215.422 307.403 C 212.462 315.626,208.165 318.901,200.369 318.876 C 188.919 318.840,182.655 309.082,184.836 294.677 C 185.304 291.580,185.412 291.228,186.817 288.214 C 189.883 281.633,198.233 278.245,205.429 280.662 M123.200 334.000 L 123.200 336.002 200.100 335.901 L 277.000 335.800 277.000 334.000 L 277.000 332.200 200.100 332.099 L 123.200 331.998 123.200 334.000 " stroke="none" fill="#2493f3" fill-rule="evenodd"></path><path id="path1" d="M0.000 200.000 L 0.000 400.000 200.000 400.000 L 400.000 400.000 400.000 300.000 L 400.000 200.000 378.667 200.000 C 366.933 200.000,357.213 200.120,357.066 200.268 C 356.612 200.721,358.071 202.000,359.043 202.000 C 359.549 202.000,360.412 202.205,360.961 202.455 C 361.766 202.822,362.250 202.772,363.451 202.202 C 364.795 201.565,365.064 201.553,366.171 202.085 C 368.604 203.254,370.228 203.744,371.814 203.787 C 373.691 203.838,376.981 205.277,378.355 206.648 C 379.025 207.317,379.762 207.600,380.832 207.600 C 382.889 207.600,383.627 208.653,383.329 211.166 C 383.047 213.549,383.717 214.189,386.346 214.050 C 388.638 213.928,389.562 214.746,389.889 217.187 C 390.068 218.523,390.347 218.958,391.355 219.474 C 393.120 220.378,393.234 220.680,392.951 223.691 C 392.710 226.262,392.741 226.397,393.649 226.745 C 395.394 227.412,396.135 228.645,396.169 230.942 C 396.193 232.567,396.455 233.438,397.282 234.634 C 399.030 237.165,399.130 239.075,397.613 240.984 C 396.624 242.228,396.417 242.784,396.645 243.583 C 396.946 244.640,396.946 244.800,396.638 248.365 C 396.492 250.042,396.226 250.718,395.456 251.365 C 394.136 252.474,393.665 255.229,394.563 256.599 C 396.083 258.919,394.986 260.659,391.275 261.815 C 387.522 262.984,387.185 263.200,387.452 264.266 C 387.764 265.507,386.924 266.469,385.632 266.353 C 382.488 266.071,380.800 267.147,380.800 269.435 C 380.800 271.586,379.808 272.349,377.991 271.596 C 377.366 271.338,376.168 271.180,375.328 271.245 C 374.487 271.311,373.053 271.225,372.140 271.054 C 371.022 270.845,370.222 270.904,369.691 271.236 C 369.049 271.637,368.540 271.598,366.951 271.027 C 363.299 269.713,362.778 269.761,361.019 271.572 C 359.253 273.390,358.204 273.590,356.691 272.400 C 356.131 271.960,355.319 271.600,354.886 271.600 C 354.453 271.600,353.887 271.346,353.630 271.036 C 352.944 270.209,353.799 269.856,354.584 270.641 C 355.128 271.185,355.662 271.234,357.912 270.945 C 361.158 270.527,361.472 269.897,359.403 267.951 C 357.062 265.748,357.471 264.265,360.467 264.096 C 362.973 263.955,363.481 264.314,362.714 265.684 C 362.017 266.926,361.518 267.230,360.949 266.758 C 360.417 266.316,359.797 266.948,360.170 267.552 C 360.915 268.757,363.600 268.299,363.600 266.967 C 363.600 266.320,363.979 265.824,364.800 265.400 L 366.000 264.779 366.000 260.324 C 366.000 256.019,366.717 252.800,367.677 252.800 C 369.114 252.800,367.065 248.074,363.949 244.201 C 361.084 240.639,361.635 240.725,357.561 243.200 C 355.750 244.300,354.061 245.200,353.809 245.200 C 351.191 245.200,350.318 251.059,352.226 255.828 C 352.790 257.238,353.131 258.588,352.984 258.826 C 352.622 259.412,350.800 257.684,350.800 256.754 C 350.800 256.365,350.640 255.949,350.445 255.828 C 350.250 255.707,349.976 254.995,349.835 254.245 C 349.365 251.739,348.000 251.433,348.000 253.833 C 348.000 254.548,347.827 255.193,347.615 255.267 C 347.404 255.340,347.187 257.155,347.133 259.300 C 347.042 262.929,346.812 263.790,346.200 262.800 C 345.401 261.508,343.225 263.222,339.600 267.997 C 338.390 269.592,336.886 271.505,336.258 272.249 C 334.871 273.892,335.065 274.571,337.185 275.489 C 338.073 275.874,338.800 276.427,338.800 276.718 C 338.800 277.009,338.665 277.176,338.500 277.090 C 335.113 275.313,330.850 274.548,330.200 275.600 C 330.064 275.820,329.558 276.003,329.076 276.008 C 327.950 276.017,324.443 278.212,324.116 279.111 C 323.833 279.887,320.847 282.800,320.333 282.800 C 319.589 282.800,320.067 281.248,321.000 280.637 C 321.550 280.276,322.000 279.621,322.000 279.181 C 322.000 278.695,322.393 278.231,323.000 278.000 C 323.550 277.791,324.000 277.473,324.000 277.294 C 324.000 277.115,324.900 276.442,326.000 275.800 C 327.100 275.158,328.000 274.490,328.000 274.316 C 328.000 274.142,328.982 274.000,330.182 274.000 C 332.295 274.000,332.436 273.929,334.607 271.776 C 337.366 269.039,337.364 268.289,334.596 267.970 C 332.260 267.702,330.602 267.013,329.171 265.717 C 327.817 264.492,325.250 263.200,324.169 263.200 C 323.696 263.200,322.879 262.878,322.354 262.484 C 321.829 262.090,320.910 261.556,320.311 261.298 C 319.615 260.997,319.144 260.425,319.005 259.714 C 318.885 259.101,318.610 257.832,318.394 256.894 C 318.177 255.956,317.994 254.516,317.987 253.694 C 317.980 252.872,317.710 251.851,317.387 251.424 C 317.064 250.996,316.800 250.272,316.800 249.813 C 316.800 248.510,315.672 247.200,314.551 247.200 C 312.459 247.200,310.896 244.730,312.400 243.800 C 312.921 243.478,312.921 239.322,312.400 239.000 C 311.879 238.678,311.879 235.322,312.400 235.000 C 312.620 234.864,312.800 234.156,312.800 233.427 C 312.800 232.697,313.073 231.326,313.408 230.379 C 313.951 228.838,313.951 228.436,313.408 226.567 C 312.564 223.667,312.614 223.360,314.203 221.682 C 318.654 216.982,318.859 216.640,318.566 214.425 C 318.298 212.407,318.974 210.800,320.091 210.800 C 320.292 210.800,320.727 210.530,321.057 210.200 C 321.741 209.516,323.095 209.428,324.532 209.974 C 325.318 210.273,325.779 210.153,326.829 209.379 C 327.551 208.846,328.748 208.296,329.487 208.157 C 330.860 207.900,332.800 205.900,332.800 204.742 C 332.800 203.730,333.705 203.200,335.434 203.200 C 336.355 203.200,337.610 202.940,338.222 202.622 C 339.084 202.175,339.524 202.147,340.168 202.499 C 342.068 203.537,345.929 203.223,346.830 201.957 C 347.730 200.694,349.181 200.444,350.945 201.248 C 351.727 201.604,352.113 201.566,352.833 201.062 C 354.048 200.211,353.271 199.923,350.158 200.069 C 348.861 200.130,269.815 200.139,174.500 200.090 L 1.200 200.000 1.200 101.600 L 1.200 3.200 200.600 3.200 L 400.000 3.200 400.000 1.600 L 400.000 0.000 200.000 0.000 L 0.000 0.000 0.000 200.000 M350.720 9.368 C 350.127 9.678,348.651 10.219,347.441 10.571 C 344.032 11.562,338.000 18.940,338.000 22.119 C 338.000 22.562,337.529 23.542,336.954 24.296 C 336.245 25.225,336.039 25.799,336.314 26.074 C 336.575 26.335,336.591 26.933,336.360 27.738 C 335.802 29.684,335.940 31.927,336.819 35.200 C 337.262 36.850,337.784 38.799,337.977 39.532 C 338.171 40.264,338.434 40.968,338.562 41.095 C 338.689 41.222,338.586 41.576,338.333 41.880 C 337.987 42.297,337.988 42.548,338.337 42.897 C 338.592 43.152,338.800 44.022,338.800 44.831 C 338.800 45.651,339.066 46.523,339.400 46.800 C 339.817 47.146,340.000 48.066,340.000 49.816 C 340.000 56.684,341.709 53.450,341.994 46.042 C 342.166 41.577,342.313 40.613,342.881 40.256 C 343.800 39.678,344.284 40.254,343.685 41.213 C 343.183 42.016,342.988 45.945,343.474 45.459 C 343.625 45.308,343.850 44.429,343.974 43.506 L 344.200 41.826 346.100 41.943 C 347.145 42.008,348.000 41.895,348.000 41.692 C 348.000 40.984,346.528 40.000,345.469 40.000 C 343.859 40.000,344.186 39.315,345.900 39.096 C 350.732 38.478,353.868 44.078,352.162 50.280 C 351.811 51.556,351.174 54.130,350.745 56.000 C 350.317 57.870,349.712 60.480,349.401 61.800 C 348.315 66.413,348.866 68.451,352.061 71.634 C 353.568 73.134,354.800 74.605,354.800 74.902 C 354.800 75.639,357.089 77.757,358.800 78.602 C 359.570 78.983,360.740 79.693,361.400 80.181 C 363.172 81.491,363.557 81.584,371.523 82.628 C 373.943 82.945,376.000 81.600,376.000 79.699 C 376.000 79.176,376.163 78.442,376.363 78.069 C 377.031 76.821,377.366 73.449,377.383 67.800 C 377.392 64.720,377.546 61.975,377.724 61.700 C 378.108 61.107,380.000 61.023,380.000 61.600 C 380.000 61.820,380.267 62.000,380.592 62.000 C 381.419 62.000,381.789 60.178,381.291 58.557 C 380.793 56.934,381.037 55.703,382.085 54.542 C 382.671 53.893,382.763 53.504,382.464 52.942 C 382.246 52.534,381.774 51.525,381.415 50.700 C 380.707 49.072,380.000 48.722,380.000 50.000 C 380.000 50.458,380.267 50.800,380.625 50.800 C 381.142 50.800,381.202 51.127,380.974 52.700 C 380.634 55.040,380.545 55.200,379.576 55.200 C 379.149 55.200,378.800 55.360,378.800 55.555 C 378.800 56.038,376.420 56.356,376.144 55.909 C 376.022 55.712,375.490 55.386,374.961 55.185 C 374.191 54.893,374.000 54.532,374.000 53.377 C 374.000 52.400,373.838 51.987,373.500 52.100 C 372.519 52.427,372.869 55.781,373.900 55.928 C 374.460 56.007,374.800 56.333,374.800 56.790 C 374.800 57.297,374.580 57.467,374.091 57.340 C 373.671 57.230,372.991 57.571,372.421 58.177 C 371.893 58.740,371.197 59.200,370.874 59.200 C 370.552 59.200,370.081 59.483,369.828 59.829 C 369.173 60.726,367.284 60.194,367.123 59.066 C 367.054 58.584,366.650 58.143,366.200 58.058 C 364.255 57.694,359.150 52.788,357.488 49.686 C 356.553 47.943,356.737 43.606,357.789 42.554 C 358.128 42.215,358.589 41.594,358.814 41.174 C 359.191 40.469,362.240 38.800,363.149 38.800 C 363.941 38.800,365.165 36.694,365.606 34.573 C 365.993 32.706,366.340 32.152,368.029 30.697 C 370.195 28.832,370.508 28.000,369.043 28.000 C 368.516 28.000,367.982 27.730,367.855 27.400 C 367.722 27.053,367.124 26.800,366.436 26.800 C 365.782 26.800,365.136 26.620,365.000 26.400 C 364.864 26.180,363.975 26.000,363.025 26.000 C 361.978 26.000,361.102 25.764,360.800 25.400 C 360.514 25.055,359.642 24.800,358.751 24.800 C 357.898 24.800,357.200 24.620,357.200 24.400 C 357.200 23.716,361.878 23.905,362.145 24.600 C 362.302 25.011,362.945 25.200,364.187 25.200 C 365.184 25.200,366.000 25.380,366.000 25.600 C 366.000 25.820,366.608 26.000,367.351 26.000 C 368.094 26.000,368.926 26.270,369.200 26.600 C 369.474 26.930,369.940 27.200,370.237 27.200 C 370.533 27.200,371.456 27.584,372.288 28.053 C 373.161 28.545,375.020 29.043,376.687 29.232 C 381.098 29.730,381.023 29.644,381.594 34.944 C 382.003 38.740,381.994 39.705,381.539 40.656 L 380.992 41.800 375.529 42.000 C 370.156 42.197,368.731 42.470,370.370 42.990 C 371.048 43.206,371.124 43.395,370.786 44.027 C 370.432 44.687,370.507 44.800,371.297 44.800 C 371.806 44.800,372.577 45.043,373.011 45.340 C 374.672 46.477,376.000 46.518,376.000 45.431 C 376.000 44.340,376.123 44.224,377.681 43.852 C 378.758 43.595,378.762 43.603,378.881 46.065 C 378.990 48.338,380.000 50.134,380.000 48.057 C 380.000 47.612,380.180 47.136,380.401 46.999 C 380.622 46.863,381.177 45.907,381.635 44.876 C 384.123 39.277,384.037 39.455,386.596 34.549 C 386.925 33.917,387.196 32.916,387.198 32.324 C 387.199 31.732,387.380 31.136,387.600 31.000 C 389.599 29.765,387.303 20.000,385.014 20.000 C 384.640 20.000,383.429 19.100,382.324 18.000 C 381.218 16.900,380.000 16.000,379.617 16.000 C 379.234 16.000,378.128 15.463,377.160 14.807 C 376.192 14.151,375.268 13.611,375.106 13.607 C 374.945 13.603,373.685 13.048,372.306 12.373 C 370.928 11.699,369.092 11.072,368.226 10.980 C 367.361 10.888,366.470 10.630,366.246 10.406 C 366.023 10.183,364.734 10.000,363.381 10.000 C 361.929 10.000,360.398 9.738,359.640 9.360 C 358.570 8.826,358.159 8.803,357.161 9.216 C 356.250 9.593,355.724 9.603,354.963 9.256 C 353.618 8.643,352.030 8.685,350.720 9.368 M356.800 23.600 C 356.800 23.820,355.990 24.000,355.000 24.000 C 354.010 24.000,353.200 23.820,353.200 23.600 C 353.200 23.380,354.010 23.200,355.000 23.200 C 355.990 23.200,356.800 23.380,356.800 23.600 M346.000 44.767 C 346.000 47.494,346.473 47.942,347.048 45.760 C 347.726 43.187,347.728 43.200,346.800 43.200 C 346.136 43.200,346.000 43.467,346.000 44.767 M338.256 60.278 C 338.115 60.418,338.000 60.759,338.000 61.036 C 338.000 61.682,335.692 64.000,335.048 64.000 C 334.778 64.000,333.946 64.630,333.200 65.400 C 332.454 66.170,331.539 66.800,331.168 66.800 C 330.796 66.800,330.197 67.250,329.837 67.800 C 329.312 68.601,328.845 68.803,327.491 68.813 C 325.718 68.827,323.720 70.024,324.193 70.789 C 324.585 71.423,327.435 71.281,328.000 70.600 C 328.274 70.270,328.985 70.000,329.579 70.000 C 330.215 70.000,331.047 69.588,331.600 69.000 C 332.117 68.450,332.823 67.999,333.170 67.999 C 333.516 67.998,334.153 67.471,334.584 66.827 C 335.751 65.086,336.000 65.641,336.000 69.981 C 336.000 72.757,336.147 73.972,336.500 74.109 C 336.775 74.215,337.519 75.270,338.153 76.451 C 340.628 81.062,344.036 82.784,350.700 82.794 C 355.243 82.801,356.190 82.248,352.300 81.860 C 344.745 81.107,339.713 78.265,338.921 74.304 C 338.798 73.688,338.540 73.086,338.348 72.968 C 337.702 72.569,337.927 64.558,338.600 64.000 C 338.942 63.716,339.200 62.844,339.200 61.975 C 339.200 60.498,338.784 59.750,338.256 60.278 M124.756 63.100 C 124.522 63.705,124.181 65.010,123.997 66.000 C 123.813 66.990,123.360 69.060,122.991 70.600 C 122.334 73.346,121.948 75.099,121.253 78.500 C 121.061 79.435,120.683 81.100,120.412 82.200 C 120.141 83.300,119.775 84.830,119.600 85.600 C 119.425 86.370,119.059 87.900,118.788 89.000 C 118.517 90.100,118.153 91.720,117.980 92.600 C 117.807 93.480,117.363 95.460,116.993 97.000 C 116.623 98.540,116.170 100.520,115.986 101.400 C 115.802 102.280,115.367 104.170,115.020 105.600 C 114.672 107.030,114.225 109.010,114.025 110.000 C 113.597 112.124,112.536 116.643,112.183 117.845 C 111.886 118.859,112.768 119.186,115.824 119.195 C 118.704 119.202,119.443 118.283,120.159 113.800 C 120.352 112.592,120.689 111.089,121.592 107.400 C 121.861 106.300,122.229 104.770,122.409 104.000 C 122.589 103.230,122.959 101.790,123.231 100.800 C 123.724 99.007,124.021 97.628,124.748 93.767 C 125.288 90.898,126.402 88.773,127.800 87.942 C 139.752 80.842,147.161 83.730,144.613 94.495 C 144.235 96.093,143.780 98.030,143.603 98.800 C 143.426 99.570,143.059 101.100,142.788 102.200 C 142.240 104.422,141.829 106.364,141.242 109.499 C 141.025 110.653,140.713 111.817,140.548 112.084 C 140.274 112.528,139.916 114.116,139.341 117.444 C 139.096 118.857,139.716 119.189,142.600 119.189 C 145.588 119.189,146.807 117.945,146.798 114.906 C 146.797 114.518,147.053 113.390,147.368 112.400 C 147.683 111.410,148.417 108.440,149.001 105.800 C 150.235 100.217,150.552 98.851,151.183 96.400 C 152.969 89.463,152.779 85.050,150.559 81.903 C 147.029 76.899,137.933 76.692,130.503 81.445 C 127.877 83.125,127.568 83.131,127.826 81.500 C 128.240 78.879,128.867 75.760,129.294 74.200 C 129.725 72.624,130.005 71.188,130.743 66.751 C 130.949 65.514,131.324 64.116,131.577 63.643 C 132.307 62.278,131.763 62.000,128.366 62.000 C 125.260 62.000,125.170 62.028,124.756 63.100 M235.712 65.101 C 235.062 65.543,234.102 68.326,233.936 70.252 L 233.803 71.800 237.601 71.800 L 241.400 71.800 241.733 70.200 C 241.917 69.320,242.261 67.924,242.498 67.098 C 242.735 66.272,242.796 65.463,242.633 65.300 C 242.208 64.874,236.294 64.704,235.712 65.101 M383.600 73.600 C 383.930 73.813,384.684 73.991,385.276 73.994 C 385.868 73.997,386.464 74.180,386.600 74.400 C 386.736 74.620,387.252 74.800,387.747 74.800 C 388.242 74.800,388.996 75.064,389.424 75.387 C 389.851 75.710,390.594 75.980,391.076 75.987 C 391.558 75.994,392.064 76.180,392.200 76.400 C 392.336 76.620,392.822 76.800,393.280 76.800 C 393.737 76.800,394.342 77.115,394.623 77.499 C 394.904 77.884,395.271 78.062,395.438 77.895 C 395.815 77.518,394.746 76.710,392.400 75.601 C 391.410 75.133,390.287 74.581,389.905 74.375 C 389.523 74.169,388.769 74.000,388.229 74.000 C 387.689 74.000,387.136 73.820,387.000 73.600 C 386.864 73.380,385.908 73.203,384.876 73.206 C 383.517 73.211,383.165 73.319,383.600 73.600 M183.726 78.787 C 178.936 79.683,178.138 80.214,177.878 82.683 C 177.767 83.737,177.544 85.119,177.381 85.754 C 177.053 87.038,177.358 87.059,181.000 86.001 C 193.455 82.381,200.000 83.771,200.000 90.036 L 200.000 92.764 198.700 92.964 C 197.985 93.074,195.690 93.266,193.600 93.389 C 179.527 94.222,171.464 98.115,169.244 105.149 C 165.553 116.844,175.230 123.487,188.400 118.297 C 189.842 117.728,191.767 116.706,192.000 116.384 C 192.884 115.163,193.957 115.626,194.076 117.281 L 194.200 119.000 196.199 119.126 C 199.625 119.342,200.800 118.954,200.800 117.608 C 200.800 116.972,201.005 115.945,201.255 115.326 C 201.683 114.267,201.935 113.202,202.729 109.100 C 202.910 108.165,203.260 106.770,203.505 106.000 C 203.751 105.230,204.162 103.520,204.419 102.200 C 204.676 100.880,205.059 99.260,205.271 98.600 C 207.600 91.328,207.631 84.714,205.347 82.046 C 202.084 78.234,193.562 76.950,183.726 78.787 M232.947 79.195 C 232.398 79.417,232.018 80.013,231.880 80.870 C 231.762 81.601,231.369 83.370,231.007 84.800 C 230.181 88.064,229.741 90.033,229.242 92.699 C 229.025 93.853,228.737 94.979,228.600 95.200 C 228.463 95.421,228.196 96.457,228.005 97.501 C 227.815 98.545,227.369 100.570,227.013 102.000 C 226.658 103.430,226.209 105.320,226.016 106.200 C 225.823 107.080,225.363 109.060,224.993 110.600 C 224.623 112.140,224.168 114.120,223.982 115.000 C 223.795 115.880,223.527 117.070,223.386 117.644 C 223.076 118.901,223.794 119.186,227.295 119.195 C 229.686 119.200,230.800 118.057,230.800 115.597 C 230.800 115.209,231.056 114.016,231.369 112.946 C 231.682 111.876,232.151 109.920,232.412 108.600 C 232.673 107.280,233.059 105.660,233.271 105.000 C 233.482 104.340,233.809 102.990,233.998 102.000 C 234.186 101.010,234.631 99.030,234.987 97.600 C 235.901 93.918,236.308 92.104,236.758 89.701 C 236.975 88.547,237.263 87.421,237.400 87.200 C 237.537 86.979,237.808 85.943,238.004 84.899 C 238.199 83.855,238.523 82.245,238.722 81.322 C 238.963 80.207,238.943 79.503,238.662 79.222 C 238.162 78.722,234.166 78.703,232.947 79.195 M262.742 79.059 C 262.381 79.160,261.984 79.728,261.860 80.321 C 261.737 80.915,261.471 82.210,261.270 83.200 C 261.069 84.190,260.683 85.900,260.412 87.000 C 260.141 88.100,259.775 89.630,259.600 90.400 C 259.424 91.170,259.071 92.610,258.814 93.600 C 258.324 95.493,257.831 97.669,257.253 100.500 C 257.061 101.435,256.683 103.100,256.412 104.200 C 256.141 105.300,255.775 106.830,255.600 107.600 C 255.425 108.370,255.059 109.900,254.788 111.000 C 254.517 112.100,254.131 113.810,253.930 114.800 C 253.729 115.790,253.466 117.070,253.345 117.644 C 253.081 118.900,253.813 119.186,257.310 119.195 C 260.140 119.201,260.192 119.104,261.982 110.400 C 262.186 109.410,262.635 107.430,262.981 106.000 C 263.326 104.570,263.782 102.500,263.994 101.400 C 264.206 100.300,264.666 98.230,265.017 96.800 C 265.367 95.370,265.750 93.480,265.866 92.600 C 266.421 88.405,276.924 83.849,282.537 85.368 C 285.469 86.162,285.817 86.078,286.121 84.505 C 286.238 83.897,286.515 82.703,286.736 81.851 C 287.414 79.237,285.245 78.361,280.200 79.213 C 276.235 79.882,273.756 80.914,270.015 83.450 C 268.342 84.585,267.664 84.177,268.373 82.465 C 269.610 79.479,266.971 77.883,262.742 79.059 M198.074 99.600 C 198.004 100.370,197.791 101.540,197.600 102.200 C 197.408 102.860,196.939 104.570,196.557 106.000 C 195.674 109.300,195.320 109.694,191.635 111.467 C 182.508 115.860,176.044 114.562,176.013 108.331 C 175.985 102.737,180.539 99.749,190.570 98.778 C 192.753 98.566,194.637 98.296,194.755 98.178 C 195.724 97.209,198.194 98.268,198.074 99.600 M110.268 128.266 C 110.120 128.413,110.000 129.314,110.000 130.268 L 110.000 132.002 196.500 131.901 L 283.000 131.800 283.000 130.000 L 283.000 128.200 196.768 128.099 C 149.340 128.044,110.415 128.119,110.268 128.266 M363.000 247.525 C 364.026 248.420,365.143 250.466,364.928 251.058 C 364.691 251.710,363.249 251.239,362.776 250.355 C 362.237 249.348,359.173 248.000,357.422 248.000 C 356.079 248.000,355.666 247.667,356.267 247.067 C 356.877 246.457,362.190 246.818,363.000 247.525 M362.492 251.776 C 362.955 254.006,362.367 254.523,359.591 254.322 C 355.553 254.030,351.659 250.072,355.300 249.960 C 356.015 249.938,357.050 249.792,357.600 249.635 C 359.734 249.025,362.139 250.078,362.492 251.776 M367.200 256.967 C 367.200 259.027,367.601 259.293,368.414 257.774 C 368.804 257.044,368.845 256.560,368.553 256.098 C 367.710 254.761,367.200 255.088,367.200 256.967 M362.375 260.671 C 363.267 261.435,363.107 262.000,362.000 262.000 C 361.101 262.000,360.645 261.382,360.952 260.581 C 361.237 259.839,361.417 259.851,362.375 260.671 M157.353 274.754 C 158.647 274.969,159.898 275.338,160.133 275.573 C 160.368 275.808,160.892 276.000,161.297 276.000 C 161.702 276.000,163.196 276.544,164.617 277.208 L 167.200 278.416 167.195 281.308 C 167.192 282.899,167.079 284.609,166.945 285.110 L 166.702 286.020 165.451 285.076 C 154.786 277.032,140.607 278.649,135.915 288.445 C 132.531 295.512,132.502 302.909,135.828 310.600 C 138.993 317.919,151.138 321.412,159.332 317.360 C 159.955 317.052,160.644 316.800,160.862 316.800 C 161.081 316.800,162.492 316.003,163.998 315.029 C 167.158 312.985,167.203 313.015,167.194 317.133 C 167.185 320.899,166.983 321.080,160.200 323.365 C 150.095 326.770,137.534 324.256,132.866 317.895 C 132.573 317.495,132.020 316.860,131.639 316.484 C 131.257 316.108,130.448 314.720,129.839 313.400 C 128.204 309.850,128.085 309.528,127.835 308.000 C 127.709 307.230,127.433 305.790,127.221 304.800 C 126.342 300.699,126.826 294.522,128.443 289.200 C 131.852 277.979,143.064 272.376,157.353 274.754 M204.976 274.434 C 206.309 274.673,207.910 275.123,208.532 275.434 C 209.155 275.746,209.851 276.000,210.079 276.000 C 210.954 276.000,215.957 279.669,217.030 281.098 C 217.650 281.924,218.288 282.692,218.447 282.804 C 222.203 285.451,224.370 303.891,221.561 309.295 C 221.362 309.677,221.200 310.206,221.200 310.471 C 221.200 313.366,215.077 320.689,211.073 322.583 C 205.521 325.209,201.148 325.584,193.760 324.066 C 188.287 322.942,181.525 317.059,180.189 312.260 C 180.057 311.787,179.790 311.040,179.595 310.600 C 178.096 307.218,177.404 296.613,178.423 292.646 C 179.414 288.790,180.219 286.507,181.081 285.108 C 181.586 284.287,182.000 283.509,182.000 283.379 C 182.000 283.249,182.225 282.906,182.500 282.616 C 182.775 282.326,183.360 281.592,183.800 280.984 C 184.691 279.754,187.955 277.282,189.800 276.440 C 192.131 275.377,192.624 275.207,195.000 274.651 C 197.991 273.950,201.812 273.867,204.976 274.434 M259.693 274.424 C 261.292 274.657,263.434 275.107,264.454 275.424 C 265.473 275.741,266.678 276.000,267.130 276.000 C 267.583 276.000,268.052 276.160,268.173 276.356 C 268.294 276.551,268.887 276.836,269.492 276.987 C 271.024 277.372,271.187 277.782,271.194 281.276 C 271.200 284.325,270.823 285.244,269.882 284.473 C 268.930 283.692,265.468 282.000,264.820 282.000 C 264.457 282.000,263.989 281.854,263.780 281.676 C 260.373 278.767,247.956 279.741,244.335 283.202 C 238.806 288.486,243.494 294.469,254.400 296.045 C 261.672 297.097,264.819 298.101,268.313 300.487 C 273.928 304.320,274.391 313.890,269.216 319.183 C 267.935 320.494,263.891 323.200,263.214 323.200 C 262.980 323.200,262.477 323.359,262.095 323.553 C 259.658 324.790,253.473 325.415,249.600 324.815 C 247.950 324.559,245.741 324.248,244.692 324.123 C 243.642 323.999,242.686 323.740,242.568 323.548 C 242.450 323.357,241.958 323.199,241.476 323.198 C 240.994 323.196,240.084 322.926,239.454 322.598 C 238.824 322.269,238.028 322.000,237.686 322.000 C 236.136 322.000,235.600 320.808,235.600 317.362 C 235.600 313.426,235.835 313.193,238.309 314.677 C 242.618 317.263,245.544 318.233,250.600 318.751 C 260.425 319.758,266.000 316.762,266.000 310.474 C 266.000 305.195,264.752 304.546,248.800 301.536 C 237.363 299.378,232.278 289.580,238.119 280.955 C 239.883 278.351,245.687 274.843,248.351 274.772 C 248.928 274.756,249.760 274.589,250.200 274.400 C 251.334 273.913,256.269 273.925,259.693 274.424 M361.000 274.400 C 361.136 274.620,361.563 274.800,361.949 274.800 C 363.592 274.800,366.435 279.869,365.563 281.246 C 365.313 281.641,365.210 281.480,365.206 280.683 C 365.200 279.535,364.968 279.141,363.131 277.155 C 362.088 276.029,361.961 276.000,358.031 276.000 C 354.715 276.000,354.000 275.894,354.000 275.400 C 354.000 274.934,354.531 274.800,356.376 274.800 C 357.683 274.800,358.864 274.620,359.000 274.400 C 359.136 274.180,359.586 274.000,360.000 274.000 C 360.414 274.000,360.864 274.180,361.000 274.400 M195.200 280.750 C 190.286 282.609,187.812 285.245,185.581 291.000 C 184.534 293.702,184.144 300.351,184.805 304.227 C 186.483 314.060,191.570 318.848,200.369 318.876 C 208.165 318.901,212.462 315.626,215.422 307.403 C 216.903 303.287,216.121 290.787,214.265 288.932 C 214.119 288.786,214.000 288.419,214.000 288.116 C 214.000 287.535,213.955 287.469,211.952 285.077 C 208.191 280.586,200.729 278.659,195.200 280.750 M277.000 334.000 L 277.000 335.800 200.100 335.901 L 123.200 336.002 123.200 334.000 L 123.200 331.998 200.100 332.099 L 277.000 332.200 277.000 334.000 " stroke="none" fill="#fbfbfb" fill-rule="evenodd"></path></g></svg>